<svg width="134" height="56" viewBox="0 0 134 56" fill="none" xmlns="http://www.w3.org/2000/svg">
<path d="M73.2608 39.4445C70.9827 39.4445 69.0255 38.9956 67.3891 38.0976C65.7527 37.1676 64.4853 35.917 63.5868 34.3456C62.7205 32.7422 62.2874 30.9142 62.2874 28.8618C62.2874 26.9057 62.7847 25.1258 63.7794 23.5224C64.774 21.919 66.1056 20.6362 67.7741 19.6742C69.4426 18.7121 71.3036 18.2311 73.3571 18.2311C75.9882 18.2311 78.17 19.0007 79.9027 20.54C81.6353 22.0793 82.8065 24.1958 83.4161 26.8896L67.004 32.662L65.9452 30.0163L79.4214 25.1098L78.4588 25.7351C78.0738 24.6769 77.432 23.7629 76.5336 22.9933C75.6352 22.1916 74.4641 21.7907 73.0202 21.7907C71.8009 21.7907 70.71 22.0953 69.7474 22.7047C68.7848 23.2819 68.0308 24.0836 67.4853 25.1098C66.9399 26.136 66.6671 27.3065 66.6671 28.6213C66.6671 30.0003 66.9559 31.2189 67.5334 32.2772C68.111 33.3034 68.8971 34.1211 69.8918 34.7304C70.9185 35.3077 72.0736 35.5963 73.3571 35.5963C74.2234 35.5963 75.0577 35.4359 75.8598 35.1152C76.6941 34.7946 77.4641 34.3777 78.17 33.8646L80.2396 37.1837C79.2449 37.8571 78.1219 38.4023 76.8705 38.8192C75.6513 39.2361 74.448 39.4445 73.2608 39.4445ZM96.4054 39.5407L85.3357 19.0488H90.6299L98.1381 34.8747L95.3947 34.7785L102.277 19.0488H107.283L96.6461 39.5407H96.4054ZM109.9 28.8137C109.9 26.8255 110.365 25.0296 111.295 23.4262C112.258 21.8228 113.574 20.556 115.242 19.6261C116.911 18.6961 118.804 18.2311 120.921 18.2311C123.103 18.2311 125.012 18.6961 126.649 19.6261C128.285 20.556 129.552 21.8228 130.451 23.4262C131.349 25.0296 131.799 26.8255 131.799 28.8137C131.799 30.802 131.349 32.6139 130.451 34.2494C129.552 35.8528 128.269 37.1195 126.601 38.0495C124.964 38.9795 123.055 39.4445 120.873 39.4445C118.755 39.4445 116.862 39.0116 115.194 38.1457C113.557 37.2478 112.258 36.0132 111.295 34.4418C110.365 32.8384 109.9 30.9623 109.9 28.8137ZM114.376 28.8618C114.376 30.1446 114.664 31.3151 115.242 32.3734C115.82 33.3996 116.59 34.2173 117.552 34.8266C118.547 35.4359 119.638 35.7406 120.825 35.7406C122.076 35.7406 123.183 35.4359 124.146 34.8266C125.141 34.2173 125.911 33.3996 126.456 32.3734C127.002 31.3151 127.274 30.1446 127.274 28.8618C127.274 27.5791 127.002 26.4246 126.456 25.3984C125.911 24.3402 125.141 23.5064 124.146 22.8971C123.183 22.2557 122.076 21.935 120.825 21.935C119.606 21.935 118.499 22.2557 117.504 22.8971C116.542 23.5384 115.771 24.3883 115.194 25.4465C114.648 26.4727 114.376 27.6112 114.376 28.8618Z" fill="#494949"/>
<mask id="mask0_2418_2952" style="mask-type:luminance" maskUnits="userSpaceOnUse" x="0" y="0" width="55" height="56">
<path d="M54.3861 0H0V56H54.3861V0Z" fill="white"/>
</mask>
<g mask="url(#mask0_2418_2952)">
<mask id="mask1_2418_2952" style="mask-type:luminance" maskUnits="userSpaceOnUse" x="0" y="13" width="17" height="25">
<path d="M16.197 13.9629H0V37.7294H16.197V13.9629Z" fill="white"/>
</mask>
<g mask="url(#mask1_2418_2952)">
<path d="M16.197 29.7825C16.197 34.1714 12.6865 37.7294 8.17276 37.7294C3.65907 37.7294 0 34.1714 0 29.7825C0 25.3935 3.65907 21.8355 8.17276 21.8355C12.6865 21.8355 16.197 25.3935 16.197 29.7825Z" fill="#0059FF"/>
<path d="M0.446087 29.7084C0.199883 29.7084 -0.000379772 29.5088 0.00677788 29.2628C0.123576 25.2485 1.81498 21.4223 4.74428 18.5748C7.67656 15.7242 11.6174 14.0796 15.7515 13.969C15.9976 13.9624 16.1972 14.1626 16.1972 14.4087V29.2628C16.1972 29.509 15.9977 29.7084 15.7515 29.7084H0.446087Z" fill="#0059FF"/>
</g>
<mask id="mask2_2418_2952" style="mask-type:luminance" maskUnits="userSpaceOnUse" x="12" y="39" width="25" height="17">
<path d="M12.9544 39.6605L12.9279 55.8513L36.7032 55.8906L36.7298 39.6996L12.9544 39.6605Z" fill="white"/>
</mask>
<g mask="url(#mask2_2418_2952)">
<path d="M28.78 39.6865C33.1705 39.6936 36.724 43.2086 36.7166 47.7207C36.7092 52.2327 33.1439 55.8846 28.7534 55.8773C24.3628 55.8701 20.8094 52.2067 20.8168 47.6946C20.8243 43.1825 24.3894 39.6792 28.78 39.6865Z" fill="#0059FF"/>
<path d="M28.68 55.4316C28.6796 55.6777 28.4796 55.8778 28.2335 55.8701C24.2178 55.7467 20.3931 54.0498 17.5493 51.1167C14.7025 48.1809 13.0637 44.2388 12.9599 40.106C12.9537 39.8601 13.1543 39.6608 13.4005 39.6612L28.2601 39.6856C28.5063 39.6861 28.7056 39.8858 28.7051 40.132L28.68 55.4316Z" fill="#0059FF"/>
</g>
<mask id="mask3_2418_2952" style="mask-type:luminance" maskUnits="userSpaceOnUse" x="38" y="17" width="17" height="25">
<path d="M38.1891 41.2945H54.3861V17.5278H38.1891V41.2945Z" fill="white"/>
</mask>
<g mask="url(#mask3_2418_2952)">
<path d="M38.1891 25.4748C38.1891 21.0859 41.6996 17.5278 46.2133 17.5278C50.7271 17.5278 54.3861 21.0859 54.3861 25.4748C54.3861 29.8638 50.7271 33.4217 46.2133 33.4217C41.6996 33.4217 38.1891 29.8638 38.1891 25.4748Z" fill="#0059FF"/>
<path d="M53.9405 25.5491C54.1864 25.5491 54.3869 25.7487 54.3797 25.9947C54.2626 30.009 52.5716 33.8351 49.6422 36.6827C46.7099 39.5333 42.7689 41.1778 38.6349 41.2885C38.3888 41.2949 38.1891 41.0949 38.1891 40.8487V25.9947C38.1891 25.7486 38.3887 25.5491 38.6349 25.5491H53.9405Z" fill="#0059FF"/>
</g>
<mask id="mask4_2418_2952" style="mask-type:luminance" maskUnits="userSpaceOnUse" x="17" y="0" width="25" height="17">
<path d="M41.7554 16.191V0H17.9801V16.191H41.7554Z" fill="white"/>
</mask>
<g mask="url(#mask4_2418_2952)">
<path d="M25.93 16.191C21.5394 16.191 17.9801 12.6818 17.9801 8.16975C17.9801 3.65772 21.5394 0 25.93 0C30.3205 0 33.8799 3.65772 33.8799 8.16975C33.8799 12.6818 30.3205 16.191 25.93 16.191Z" fill="#0059FF"/>
<path d="M26.0043 0.445624C26.0043 0.199514 26.204 -0.000674757 26.45 0.00648027C30.4659 0.123236 34.2934 1.81402 37.142 4.74224C39.9937 7.67345 41.639 11.6128 41.7493 15.7453C41.7562 15.9914 41.556 16.191 41.3097 16.191H26.45C26.2038 16.191 26.0043 15.9915 26.0043 15.7453V0.445624Z" fill="#0059FF"/>
</g>
</g>
</svg>
